<?xml version="1.0" encoding="UTF-8" standalone="no"?>
<!DOCTYPE svg PUBLIC "-//W3C//DTD SVG 1.1//EN"
 "http://www.w3.org/Graphics/SVG/1.1/DTD/svg11.dtd">
<!-- Generated by graphviz version 14.0.2 (20251019.1705)
 -->
<!-- Title: Source/GOAP/Public/GOAPTypes.h Pages: 1 -->
<svg width="414pt" height="176pt"
 viewBox="0.00 0.00 414.00 176.00" xmlns="http://www.w3.org/2000/svg" xmlns:xlink="http://www.w3.org/1999/xlink">

<svg id="main" version="1.1" xmlns="http://www.w3.org/2000/svg" xmlns:xlink="http://www.w3.org/1999/xlink" xml:space="preserve">

<style type="text/css"><![CDATA[
.node, .edge {opacity: 0.7;}
.node.selected, .edge.selected {opacity: 1;}
.edge:hover path { stroke: red; }
.edge:hover polygon { stroke: red; fill: red; }
]]></style>
<script type="application/ecmascript" xlink:href="svg.min.js"/>
<svg id="graph" class="graph">
<g id="graph0" class="graph" transform="scale(1 1) rotate(0) translate(4 172)">
<title>Source/GOAP/Public/GOAPTypes.h</title>
<!-- Node1 -->
<g id="Node000001" class="node">
<title>Node1</title>
<g id="a_Node000001"><a xlink:title=" ">
<polygon fill="#999999" stroke="#666666" points="257.25,-168 149,-168 149,-136 257.25,-136 257.25,-168"/>
<text xml:space="preserve" text-anchor="start" x="157" y="-154.5" font-family="Helvetica,sans-Serif" font-size="10.00">Source/GOAP/Public</text>
<text xml:space="preserve" text-anchor="middle" x="203.12" y="-142.5" font-family="Helvetica,sans-Serif" font-size="10.00">/GOAPTypes.h</text>
</a>
</g>
</g>
<!-- Node2 -->
<g id="Node000002" class="node">
<title>Node2</title>
<g id="a_Node000002"><a xlink:href="_g_o_a_p_planner_8h.html" target="_top" xlink:title=" ">
<polygon fill="white" stroke="#666666" points="108.25,-100 0,-100 0,-68 108.25,-68 108.25,-100"/>
<text xml:space="preserve" text-anchor="start" x="8" y="-86.5" font-family="Helvetica,sans-Serif" font-size="10.00">Source/GOAP/Public</text>
<text xml:space="preserve" text-anchor="middle" x="54.12" y="-74.5" font-family="Helvetica,sans-Serif" font-size="10.00">/GOAPPlanner.h</text>
</a>
</g>
</g>
<!-- Node1&#45;&gt;Node2 -->
<g id="edge1_Node000001_Node000002" class="edge">
<title>Node1&#45;&gt;Node2</title>
<g id="a_edge1_Node000001_Node000002"><a xlink:title=" ">
<path fill="none" stroke="#63b8ff" d="M157.73,-130.89C135.67,-121.12 109.58,-109.56 89.1,-100.49"/>
<polygon fill="#63b8ff" stroke="#63b8ff" points="156.25,-134.06 166.81,-134.91 159.08,-127.66 156.25,-134.06"/>
</a>
</g>
</g>
<!-- Node4 -->
<g id="Node000004" class="node">
<title>Node4</title>
<g id="a_Node000004"><a xlink:href="_g_o_a_p_world_state_component_8h.html" target="_top" xlink:title=" ">
<polygon fill="white" stroke="#666666" points="280.12,-100 126.12,-100 126.12,-68 280.12,-68 280.12,-100"/>
<text xml:space="preserve" text-anchor="start" x="134.12" y="-86.5" font-family="Helvetica,sans-Serif" font-size="10.00">Source/GOAP/Public</text>
<text xml:space="preserve" text-anchor="middle" x="203.12" y="-74.5" font-family="Helvetica,sans-Serif" font-size="10.00">/GOAPWorldStateComponent.h</text>
</a>
</g>
</g>
<!-- Node1&#45;&gt;Node4 -->
<g id="edge3_Node000001_Node000004" class="edge">
<title>Node1&#45;&gt;Node4</title>
<g id="a_edge3_Node000001_Node000004"><a xlink:title=" ">
<path fill="none" stroke="#63b8ff" d="M203.12,-124.31C203.12,-116.12 203.12,-107.38 203.12,-100.22"/>
<polygon fill="#63b8ff" stroke="#63b8ff" points="199.63,-124.18 203.13,-134.18 206.63,-124.18 199.63,-124.18"/>
</a>
</g>
</g>
<!-- Node5 -->
<g id="Node000005" class="node">
<title>Node5</title>
<g id="a_Node000005"><a xlink:href="_g_o_a_p_goal_8h.html" target="_top" xlink:title=" ">
<polygon fill="white" stroke="#666666" points="406.25,-100 298,-100 298,-68 406.25,-68 406.25,-100"/>
<text xml:space="preserve" text-anchor="start" x="306" y="-86.5" font-family="Helvetica,sans-Serif" font-size="10.00">Source/GOAP/Public</text>
<text xml:space="preserve" text-anchor="middle" x="352.12" y="-74.5" font-family="Helvetica,sans-Serif" font-size="10.00">/Goals/GOAPGoal.h</text>
</a>
</g>
</g>
<!-- Node1&#45;&gt;Node5 -->
<g id="edge5_Node000001_Node000005" class="edge">
<title>Node1&#45;&gt;Node5</title>
<g id="a_edge5_Node000001_Node000005"><a xlink:title=" ">
<path fill="none" stroke="#63b8ff" d="M248.52,-130.89C270.58,-121.12 296.67,-109.56 317.15,-100.49"/>
<polygon fill="#63b8ff" stroke="#63b8ff" points="247.17,-127.66 239.44,-134.91 250,-134.06 247.17,-127.66"/>
</a>
</g>
</g>
<!-- Node3 -->
<g id="Node000003" class="node">
<title>Node3</title>
<g id="a_Node000003"><a xlink:href="_g_o_a_p_agent_8h.html" target="_top" xlink:title=" ">
<polygon fill="white" stroke="#666666" points="257.25,-32 149,-32 149,0 257.25,0 257.25,-32"/>
<text xml:space="preserve" text-anchor="start" x="157" y="-18.5" font-family="Helvetica,sans-Serif" font-size="10.00">Source/GOAP/Public</text>
<text xml:space="preserve" text-anchor="middle" x="203.12" y="-6.5" font-family="Helvetica,sans-Serif" font-size="10.00">/GOAPAgent.h</text>
</a>
</g>
</g>
<!-- Node2&#45;&gt;Node3 -->
<g id="edge2_Node000002_Node000003" class="edge">
<title>Node2&#45;&gt;Node3</title>
<g id="a_edge2_Node000002_Node000003"><a xlink:title=" ">
<path fill="none" stroke="#63b8ff" d="M99.52,-62.89C121.58,-53.12 147.67,-41.56 168.15,-32.49"/>
<polygon fill="#63b8ff" stroke="#63b8ff" points="98.17,-59.66 90.44,-66.91 101,-66.06 98.17,-59.66"/>
</a>
</g>
</g>
<!-- Node4&#45;&gt;Node3 -->
<g id="edge4_Node000004_Node000003" class="edge">
<title>Node4&#45;&gt;Node3</title>
<g id="a_edge4_Node000004_Node000003"><a xlink:title=" ">
<path fill="none" stroke="#63b8ff" d="M203.12,-56.31C203.12,-48.12 203.12,-39.38 203.12,-32.22"/>
<polygon fill="#63b8ff" stroke="#63b8ff" points="199.63,-56.18 203.13,-66.18 206.63,-56.18 199.63,-56.18"/>
</a>
</g>
</g>
<!-- Node5&#45;&gt;Node3 -->
<g id="edge6_Node000005_Node000003" class="edge">
<title>Node5&#45;&gt;Node3</title>
<g id="a_edge6_Node000005_Node000003"><a xlink:title=" ">
<path fill="none" stroke="#63b8ff" d="M306.73,-62.89C284.67,-53.12 258.58,-41.56 238.1,-32.49"/>
<polygon fill="#63b8ff" stroke="#63b8ff" points="305.25,-66.06 315.81,-66.91 308.08,-59.66 305.25,-66.06"/>
</a>
</g>
</g>
</g>
</svg>
</svg>

<style type='text/css'>
<![CDATA[
[data-mouse-over-selected='false'] { opacity: 0.7; }
[data-mouse-over-selected='true']  { opacity: 1.0; }
]]>
</style>
<script type="application/ecmascript"><![CDATA[
document.addEventListener('DOMContentLoaded', (event) => {
  highlightEdges();
  highlightAdjacentNodes();
});
]]></script>
</svg>
