<?xml version="1.0" encoding="UTF-8" standalone="no"?>
<!DOCTYPE svg PUBLIC "-//W3C//DTD SVG 1.1//EN"
 "http://www.w3.org/Graphics/SVG/1.1/DTD/svg11.dtd">
<!-- Generated by graphviz version 14.0.2 (20251019.1705)
 -->
<!-- Title: Source/GOAP/Public/GOAPWorldStateComponent.h Pages: 1 -->
<svg width="680pt" height="152pt"
 viewBox="0.00 0.00 680.00 152.00" xmlns="http://www.w3.org/2000/svg" xmlns:xlink="http://www.w3.org/1999/xlink">
<g id="graph0" class="graph" transform="scale(1 1) rotate(0) translate(4 148)">
<title>Source/GOAP/Public/GOAPWorldStateComponent.h</title>
<!-- Node1 -->
<g id="Node000001" class="node">
<title>Node1</title>
<g id="a_Node000001"><a xlink:title=" ">
<polygon fill="#999999" stroke="#666666" points="359.02,-144 205.02,-144 205.02,-112 359.02,-112 359.02,-144"/>
<text xml:space="preserve" text-anchor="start" x="213.02" y="-130.5" font-family="Helvetica,sans-Serif" font-size="10.00">Source/GOAP/Public</text>
<text xml:space="preserve" text-anchor="middle" x="282.02" y="-118.5" font-family="Helvetica,sans-Serif" font-size="10.00">/GOAPWorldStateComponent.h</text>
</a>
</g>
</g>
<!-- Node2 -->
<g id="Node000002" class="node">
<title>Node2</title>
<g id="a_Node000002"><a xlink:title=" ">
<polygon fill="#e0e0e0" stroke="#999999" points="182.52,-20 103.52,-20 103.52,0 182.52,0 182.52,-20"/>
<text xml:space="preserve" text-anchor="middle" x="143.02" y="-6.5" font-family="Helvetica,sans-Serif" font-size="10.00">CoreMinimal.h</text>
</a>
</g>
</g>
<!-- Node1&#45;&gt;Node2 -->
<g id="edge1_Node000001_Node000002" class="edge">
<title>Node1&#45;&gt;Node2</title>
<g id="a_edge1_Node000001_Node000002"><a xlink:title=" ">
<path fill="none" stroke="#63b8ff" d="M204.81,-123.42C132.44,-118.24 31.78,-105.77 7.02,-76 -20.38,-43.05 42.92,-25.66 92.09,-17.4"/>
<polygon fill="#63b8ff" stroke="#63b8ff" points="92.45,-20.89 101.78,-15.87 91.36,-13.98 92.45,-20.89"/>
</a>
</g>
</g>
<!-- Node3 -->
<g id="Node000003" class="node">
<title>Node3</title>
<g id="a_Node000003"><a xlink:title=" ">
<polygon fill="#e0e0e0" stroke="#999999" points="186.27,-76 15.77,-76 15.77,-56 186.27,-56 186.27,-76"/>
<text xml:space="preserve" text-anchor="middle" x="101.02" y="-62.5" font-family="Helvetica,sans-Serif" font-size="10.00">Delegates/DelegateCombinations.h</text>
</a>
</g>
</g>
<!-- Node1&#45;&gt;Node3 -->
<g id="edge2_Node000001_Node000003" class="edge">
<title>Node1&#45;&gt;Node3</title>
<g id="a_edge2_Node000001_Node000003"><a xlink:title=" ">
<path fill="none" stroke="#63b8ff" d="M235.41,-111.55C205.91,-101.77 168.21,-89.27 140.25,-80"/>
<polygon fill="#63b8ff" stroke="#63b8ff" points="141.7,-76.8 131.11,-76.97 139.5,-83.44 141.7,-76.8"/>
</a>
</g>
</g>
<!-- Node4 -->
<g id="Node000004" class="node">
<title>Node4</title>
<g id="a_Node000004"><a xlink:title=" ">
<polygon fill="#e0e0e0" stroke="#999999" points="360.15,-76 203.9,-76 203.9,-56 360.15,-56 360.15,-76"/>
<text xml:space="preserve" text-anchor="middle" x="282.02" y="-62.5" font-family="Helvetica,sans-Serif" font-size="10.00">Components/ActorComponent.h</text>
</a>
</g>
</g>
<!-- Node1&#45;&gt;Node4 -->
<g id="edge3_Node000001_Node000004" class="edge">
<title>Node1&#45;&gt;Node4</title>
<g id="a_edge3_Node000001_Node000004"><a xlink:title=" ">
<path fill="none" stroke="#63b8ff" d="M282.02,-111.55C282.02,-104.34 282.02,-95.66 282.02,-87.88"/>
<polygon fill="#63b8ff" stroke="#63b8ff" points="285.52,-87.92 282.02,-77.92 278.52,-87.92 285.52,-87.92"/>
</a>
</g>
</g>
<!-- Node5 -->
<g id="Node000005" class="node">
<title>Node5</title>
<g id="a_Node000005"><a xlink:href="_g_o_a_p_types_8h.html" target="_top" xlink:title=" ">
<polygon fill="white" stroke="#666666" points="457.52,-76 378.52,-76 378.52,-56 457.52,-56 457.52,-76"/>
<text xml:space="preserve" text-anchor="middle" x="418.02" y="-62.5" font-family="Helvetica,sans-Serif" font-size="10.00">GOAPTypes.h</text>
</a>
</g>
</g>
<!-- Node1&#45;&gt;Node5 -->
<g id="edge4_Node000001_Node000005" class="edge">
<title>Node1&#45;&gt;Node5</title>
<g id="a_edge4_Node000001_Node000005"><a xlink:title=" ">
<path fill="none" stroke="#63b8ff" d="M317.05,-111.55C338.4,-102.13 365.46,-90.19 386.2,-81.04"/>
<polygon fill="#63b8ff" stroke="#63b8ff" points="387.58,-84.26 395.31,-77.02 384.75,-77.85 387.58,-84.26"/>
</a>
</g>
</g>
<!-- Node7 -->
<g id="Node000007" class="node">
<title>Node7</title>
<g id="a_Node000007"><a xlink:title=" ">
<polygon fill="#e0e0e0" stroke="#999999" points="672.4,-76 475.65,-76 475.65,-56 672.4,-56 672.4,-76"/>
<text xml:space="preserve" text-anchor="middle" x="574.02" y="-62.5" font-family="Helvetica,sans-Serif" font-size="10.00">GOAPWorldStateComponent.generated.h</text>
</a>
</g>
</g>
<!-- Node1&#45;&gt;Node7 -->
<g id="edge7_Node000001_Node000007" class="edge">
<title>Node1&#45;&gt;Node7</title>
<g id="a_edge7_Node000001_Node000007"><a xlink:title=" ">
<path fill="none" stroke="#63b8ff" d="M357.22,-111.55C406.91,-101.34 471.05,-88.16 516.64,-78.79"/>
<polygon fill="#63b8ff" stroke="#63b8ff" points="517.23,-82.24 526.33,-76.8 515.83,-75.39 517.23,-82.24"/>
</a>
</g>
</g>
<!-- Node5&#45;&gt;Node2 -->
<g id="edge5_Node000005_Node000002" class="edge">
<title>Node5&#45;&gt;Node2</title>
<g id="a_edge5_Node000005_Node000002"><a xlink:title=" ">
<path fill="none" stroke="#63b8ff" d="M378.04,-57.15C329.32,-47.58 246.97,-31.41 193.82,-20.97"/>
<polygon fill="#63b8ff" stroke="#63b8ff" points="194.59,-17.56 184.1,-19.07 193.24,-24.43 194.59,-17.56"/>
</a>
</g>
</g>
<!-- Node6 -->
<g id="Node000006" class="node">
<title>Node6</title>
<g id="a_Node000006"><a xlink:title=" ">
<polygon fill="#e0e0e0" stroke="#999999" points="480.4,-20 355.65,-20 355.65,0 480.4,0 480.4,-20"/>
<text xml:space="preserve" text-anchor="middle" x="418.02" y="-6.5" font-family="Helvetica,sans-Serif" font-size="10.00">GOAPTypes.generated.h</text>
</a>
</g>
</g>
<!-- Node5&#45;&gt;Node6 -->
<g id="edge6_Node000005_Node000006" class="edge">
<title>Node5&#45;&gt;Node6</title>
<g id="a_edge6_Node000005_Node000006"><a xlink:title=" ">
<path fill="none" stroke="#63b8ff" d="M418.02,-55.59C418.02,-49.01 418.02,-39.96 418.02,-31.73"/>
<polygon fill="#63b8ff" stroke="#63b8ff" points="421.52,-31.81 418.02,-21.81 414.52,-31.81 421.52,-31.81"/>
</a>
</g>
</g>
</g>
</svg>
