<?xml version="1.0" encoding="UTF-8" standalone="no"?>
<!DOCTYPE svg PUBLIC "-//W3C//DTD SVG 1.1//EN"
 "http://www.w3.org/Graphics/SVG/1.1/DTD/svg11.dtd">
<!-- Generated by graphviz version 14.0.2 (20251019.1705)
 -->
<!-- Title: Source/GOAP/Public/GOAPAIController.h Pages: 1 -->
<svg width="349pt" height="96pt"
 viewBox="0.00 0.00 349.00 96.00" xmlns="http://www.w3.org/2000/svg" xmlns:xlink="http://www.w3.org/1999/xlink">
<g id="graph0" class="graph" transform="scale(1 1) rotate(0) translate(4 92)">
<title>Source/GOAP/Public/GOAPAIController.h</title>
<!-- Node1 -->
<g id="Node000001" class="node">
<title>Node1</title>
<g id="a_Node000001"><a xlink:title=" ">
<polygon fill="#999999" stroke="#666666" points="189.62,-88 81.38,-88 81.38,-56 189.62,-56 189.62,-88"/>
<text xml:space="preserve" text-anchor="start" x="89.38" y="-74.5" font-family="Helvetica,sans-Serif" font-size="10.00">Source/GOAP/Public</text>
<text xml:space="preserve" text-anchor="middle" x="135.5" y="-62.5" font-family="Helvetica,sans-Serif" font-size="10.00">/GOAPAIController.h</text>
</a>
</g>
</g>
<!-- Node2 -->
<g id="Node000002" class="node">
<title>Node2</title>
<g id="a_Node000002"><a xlink:title=" ">
<polygon fill="#e0e0e0" stroke="#999999" points="79,-20 0,-20 0,0 79,0 79,-20"/>
<text xml:space="preserve" text-anchor="middle" x="39.5" y="-6.5" font-family="Helvetica,sans-Serif" font-size="10.00">CoreMinimal.h</text>
</a>
</g>
</g>
<!-- Node1&#45;&gt;Node2 -->
<g id="edge1_Node000001_Node000002" class="edge">
<title>Node1&#45;&gt;Node2</title>
<g id="a_edge1_Node000001_Node000002"><a xlink:title=" ">
<path fill="none" stroke="#63b8ff" d="M110.78,-55.55C96.47,-46.61 78.53,-35.39 64.22,-26.45"/>
<polygon fill="#63b8ff" stroke="#63b8ff" points="66.17,-23.54 55.84,-21.21 62.46,-29.48 66.17,-23.54"/>
</a>
</g>
</g>
<!-- Node3 -->
<g id="Node000003" class="node">
<title>Node3</title>
<g id="a_Node000003"><a xlink:title=" ">
<polygon fill="#e0e0e0" stroke="#999999" points="173.5,-20 97.5,-20 97.5,0 173.5,0 173.5,-20"/>
<text xml:space="preserve" text-anchor="middle" x="135.5" y="-6.5" font-family="Helvetica,sans-Serif" font-size="10.00">AIController.h</text>
</a>
</g>
</g>
<!-- Node1&#45;&gt;Node3 -->
<g id="edge2_Node000001_Node000003" class="edge">
<title>Node1&#45;&gt;Node3</title>
<g id="a_edge2_Node000001_Node000003"><a xlink:title=" ">
<path fill="none" stroke="#63b8ff" d="M135.5,-55.55C135.5,-48.34 135.5,-39.66 135.5,-31.88"/>
<polygon fill="#63b8ff" stroke="#63b8ff" points="139,-31.92 135.5,-21.92 132,-31.92 139,-31.92"/>
</a>
</g>
</g>
<!-- Node4 -->
<g id="Node000004" class="node">
<title>Node4</title>
<g id="a_Node000004"><a xlink:title=" ">
<polygon fill="#e0e0e0" stroke="#999999" points="341.25,-20 191.75,-20 191.75,0 341.25,0 341.25,-20"/>
<text xml:space="preserve" text-anchor="middle" x="266.5" y="-6.5" font-family="Helvetica,sans-Serif" font-size="10.00">GOAPAIController.generated.h</text>
</a>
</g>
</g>
<!-- Node1&#45;&gt;Node4 -->
<g id="edge3_Node000001_Node000004" class="edge">
<title>Node1&#45;&gt;Node4</title>
<g id="a_edge3_Node000001_Node000004"><a xlink:title=" ">
<path fill="none" stroke="#63b8ff" d="M169.24,-55.55C189.7,-46.17 215.63,-34.3 235.57,-25.17"/>
<polygon fill="#63b8ff" stroke="#63b8ff" points="236.95,-28.38 244.58,-21.04 234.03,-22.02 236.95,-28.38"/>
</a>
</g>
</g>
</g>
</svg>
