<?xml version="1.0" encoding="UTF-8" standalone="no"?>
<!DOCTYPE svg PUBLIC "-//W3C//DTD SVG 1.1//EN"
 "http://www.w3.org/Graphics/SVG/1.1/DTD/svg11.dtd">
<!-- Generated by graphviz version 14.0.2 (20251019.1705)
 -->
<!-- Title: Source/GOAP/Public/GOAPPlanner.h Pages: 1 -->
<svg width="506pt" height="152pt"
 viewBox="0.00 0.00 506.00 152.00" xmlns="http://www.w3.org/2000/svg" xmlns:xlink="http://www.w3.org/1999/xlink">
<g id="graph0" class="graph" transform="scale(1 1) rotate(0) translate(4 148)">
<title>Source/GOAP/Public/GOAPPlanner.h</title>
<!-- Node1 -->
<g id="Node000001" class="node">
<title>Node1</title>
<g id="a_Node000001"><a xlink:title=" ">
<polygon fill="#999999" stroke="#666666" points="293.5,-144 185.25,-144 185.25,-112 293.5,-112 293.5,-144"/>
<text xml:space="preserve" text-anchor="start" x="193.25" y="-130.5" font-family="Helvetica,sans-Serif" font-size="10.00">Source/GOAP/Public</text>
<text xml:space="preserve" text-anchor="middle" x="239.38" y="-118.5" font-family="Helvetica,sans-Serif" font-size="10.00">/GOAPPlanner.h</text>
</a>
</g>
</g>
<!-- Node2 -->
<g id="Node000002" class="node">
<title>Node2</title>
<g id="a_Node000002"><a xlink:title=" ">
<polygon fill="#e0e0e0" stroke="#999999" points="252.88,-20 173.88,-20 173.88,0 252.88,0 252.88,-20"/>
<text xml:space="preserve" text-anchor="middle" x="213.38" y="-6.5" font-family="Helvetica,sans-Serif" font-size="10.00">CoreMinimal.h</text>
</a>
</g>
</g>
<!-- Node1&#45;&gt;Node2 -->
<g id="edge1_Node000001_Node000002" class="edge">
<title>Node1&#45;&gt;Node2</title>
<g id="a_edge1_Node000001_Node000002"><a xlink:title=" ">
<path fill="none" stroke="#63b8ff" d="M235.98,-111.84C231.38,-91.32 223.16,-54.63 218,-31.62"/>
<polygon fill="#63b8ff" stroke="#63b8ff" points="221.42,-30.91 215.82,-21.91 214.59,-32.44 221.42,-30.91"/>
</a>
</g>
</g>
<!-- Node3 -->
<g id="Node000003" class="node">
<title>Node3</title>
<g id="a_Node000003"><a xlink:title=" ">
<polygon fill="#e0e0e0" stroke="#999999" points="211.25,-76 119.5,-76 119.5,-56 211.25,-56 211.25,-76"/>
<text xml:space="preserve" text-anchor="middle" x="165.38" y="-62.5" font-family="Helvetica,sans-Serif" font-size="10.00">UObject/Object.h</text>
</a>
</g>
</g>
<!-- Node1&#45;&gt;Node3 -->
<g id="edge2_Node000001_Node000003" class="edge">
<title>Node1&#45;&gt;Node3</title>
<g id="a_edge2_Node000001_Node000003"><a xlink:title=" ">
<path fill="none" stroke="#63b8ff" d="M220.32,-111.55C209.72,-102.95 196.53,-92.26 185.73,-83.5"/>
<polygon fill="#63b8ff" stroke="#63b8ff" points="188.13,-80.94 178.15,-77.36 183.72,-86.38 188.13,-80.94"/>
</a>
</g>
</g>
<!-- Node4 -->
<g id="Node000004" class="node">
<title>Node4</title>
<g id="a_Node000004"><a xlink:href="_g_o_a_p_types_8h.html" target="_top" xlink:title=" ">
<polygon fill="white" stroke="#666666" points="101.88,-76 22.88,-76 22.88,-56 101.88,-56 101.88,-76"/>
<text xml:space="preserve" text-anchor="middle" x="62.38" y="-62.5" font-family="Helvetica,sans-Serif" font-size="10.00">GOAPTypes.h</text>
</a>
</g>
</g>
<!-- Node1&#45;&gt;Node4 -->
<g id="edge3_Node000001_Node000004" class="edge">
<title>Node1&#45;&gt;Node4</title>
<g id="a_edge3_Node000001_Node000004"><a xlink:title=" ">
<path fill="none" stroke="#63b8ff" d="M193.79,-111.55C165.07,-101.81 128.4,-89.38 101.1,-80.13"/>
<polygon fill="#63b8ff" stroke="#63b8ff" points="102.42,-76.88 91.82,-76.98 100.17,-83.51 102.42,-76.88"/>
</a>
</g>
</g>
<!-- Node6 -->
<g id="Node000006" class="node">
<title>Node6</title>
<g id="a_Node000006"><a xlink:href="_g_o_a_p_debug_8h.html" target="_top" xlink:title=" ">
<polygon fill="white" stroke="#666666" points="349,-76 267.75,-76 267.75,-56 349,-56 349,-76"/>
<text xml:space="preserve" text-anchor="middle" x="308.38" y="-62.5" font-family="Helvetica,sans-Serif" font-size="10.00">GOAPDebug.h</text>
</a>
</g>
</g>
<!-- Node1&#45;&gt;Node6 -->
<g id="edge6_Node000001_Node000006" class="edge">
<title>Node1&#45;&gt;Node6</title>
<g id="a_edge6_Node000001_Node000006"><a xlink:title=" ">
<path fill="none" stroke="#63b8ff" d="M257.14,-111.55C266.93,-103.04 279.08,-92.48 289.09,-83.77"/>
<polygon fill="#63b8ff" stroke="#63b8ff" points="291.16,-86.6 296.41,-77.4 286.57,-81.32 291.16,-86.6"/>
</a>
</g>
</g>
<!-- Node8 -->
<g id="Node000008" class="node">
<title>Node8</title>
<g id="a_Node000008"><a xlink:title=" ">
<polygon fill="#e0e0e0" stroke="#999999" points="498.12,-76 366.62,-76 366.62,-56 498.12,-56 498.12,-76"/>
<text xml:space="preserve" text-anchor="middle" x="432.38" y="-62.5" font-family="Helvetica,sans-Serif" font-size="10.00">GOAPPlanner.generated.h</text>
</a>
</g>
</g>
<!-- Node1&#45;&gt;Node8 -->
<g id="edge9_Node000001_Node000008" class="edge">
<title>Node1&#45;&gt;Node8</title>
<g id="a_edge9_Node000001_Node000008"><a xlink:title=" ">
<path fill="none" stroke="#63b8ff" d="M289.08,-111.55C320.67,-101.73 361.09,-89.16 390.95,-79.88"/>
<polygon fill="#63b8ff" stroke="#63b8ff" points="391.87,-83.26 400.38,-76.95 389.79,-76.57 391.87,-83.26"/>
</a>
</g>
</g>
<!-- Node4&#45;&gt;Node2 -->
<g id="edge4_Node000004_Node000002" class="edge">
<title>Node4&#45;&gt;Node2</title>
<g id="a_edge4_Node000004_Node000002"><a xlink:title=" ">
<path fill="none" stroke="#63b8ff" d="M88.68,-55.59C112.89,-46.94 149.05,-34 176.21,-24.29"/>
<polygon fill="#63b8ff" stroke="#63b8ff" points="177.2,-27.65 185.44,-20.99 174.85,-21.06 177.2,-27.65"/>
</a>
</g>
</g>
<!-- Node5 -->
<g id="Node000005" class="node">
<title>Node5</title>
<g id="a_Node000005"><a xlink:title=" ">
<polygon fill="#e0e0e0" stroke="#999999" points="124.75,-20 0,-20 0,0 124.75,0 124.75,-20"/>
<text xml:space="preserve" text-anchor="middle" x="62.38" y="-6.5" font-family="Helvetica,sans-Serif" font-size="10.00">GOAPTypes.generated.h</text>
</a>
</g>
</g>
<!-- Node4&#45;&gt;Node5 -->
<g id="edge5_Node000004_Node000005" class="edge">
<title>Node4&#45;&gt;Node5</title>
<g id="a_edge5_Node000004_Node000005"><a xlink:title=" ">
<path fill="none" stroke="#63b8ff" d="M62.38,-55.59C62.38,-49.01 62.38,-39.96 62.38,-31.73"/>
<polygon fill="#63b8ff" stroke="#63b8ff" points="65.88,-31.81 62.38,-21.81 58.88,-31.81 65.88,-31.81"/>
</a>
</g>
</g>
<!-- Node6&#45;&gt;Node2 -->
<g id="edge7_Node000006_Node000002" class="edge">
<title>Node6&#45;&gt;Node2</title>
<g id="a_edge7_Node000006_Node000002"><a xlink:title=" ">
<path fill="none" stroke="#63b8ff" d="M291.83,-55.59C277.48,-47.44 256.45,-35.48 239.77,-26"/>
<polygon fill="#63b8ff" stroke="#63b8ff" points="241.79,-23.13 231.37,-21.23 238.33,-29.21 241.79,-23.13"/>
</a>
</g>
</g>
<!-- Node7 -->
<g id="Node000007" class="node">
<title>Node7</title>
<g id="a_Node000007"><a xlink:title=" ">
<polygon fill="#e0e0e0" stroke="#999999" points="397.88,-20 270.88,-20 270.88,0 397.88,0 397.88,-20"/>
<text xml:space="preserve" text-anchor="middle" x="334.38" y="-6.5" font-family="Helvetica,sans-Serif" font-size="10.00">GOAPDebug.generated.h</text>
</a>
</g>
</g>
<!-- Node6&#45;&gt;Node7 -->
<g id="edge8_Node000006_Node000007" class="edge">
<title>Node6&#45;&gt;Node7</title>
<g id="a_edge8_Node000006_Node000007"><a xlink:title=" ">
<path fill="none" stroke="#63b8ff" d="M312.9,-55.59C316.22,-48.7 320.84,-39.1 324.95,-30.57"/>
<polygon fill="#63b8ff" stroke="#63b8ff" points="328.06,-32.19 329.24,-21.66 321.75,-29.15 328.06,-32.19"/>
</a>
</g>
</g>
</g>
</svg>
