<?xml version="1.0" encoding="UTF-8" standalone="no"?>
<!DOCTYPE svg PUBLIC "-//W3C//DTD SVG 1.1//EN"
 "http://www.w3.org/Graphics/SVG/1.1/DTD/svg11.dtd">
<!-- Generated by graphviz version 14.0.2 (20251019.1705)
 -->
<!-- Title: Source/GOAP/Public/Actions/GOAPAction.h Pages: 1 -->
<svg width="304pt" height="108pt"
 viewBox="0.00 0.00 304.00 108.00" xmlns="http://www.w3.org/2000/svg" xmlns:xlink="http://www.w3.org/1999/xlink">
<g id="graph0" class="graph" transform="scale(1 1) rotate(0) translate(4 104)">
<title>Source/GOAP/Public/Actions/GOAPAction.h</title>
<!-- Node1 -->
<g id="Node000001" class="node">
<title>Node1</title>
<g id="a_Node000001"><a xlink:title=" ">
<polygon fill="#999999" stroke="#666666" points="220.38,-100 101.62,-100 101.62,-68 220.38,-68 220.38,-100"/>
<text xml:space="preserve" text-anchor="start" x="109.62" y="-86.5" font-family="Helvetica,sans-Serif" font-size="10.00">Source/GOAP/Public</text>
<text xml:space="preserve" text-anchor="middle" x="161" y="-74.5" font-family="Helvetica,sans-Serif" font-size="10.00">/Actions/GOAPAction.h</text>
</a>
</g>
</g>
<!-- Node2 -->
<g id="Node000002" class="node">
<title>Node2</title>
<g id="a_Node000002"><a xlink:href="_put_away_weapon_action_8h.html" target="_top" xlink:title=" ">
<polygon fill="white" stroke="#666666" points="166,-32 0,-32 0,0 166,0 166,-32"/>
<text xml:space="preserve" text-anchor="start" x="8" y="-18.5" font-family="Helvetica,sans-Serif" font-size="10.00">Source/GOAP/Public</text>
<text xml:space="preserve" text-anchor="middle" x="83" y="-6.5" font-family="Helvetica,sans-Serif" font-size="10.00">/Actions/PutAwayWeaponAction.h</text>
</a>
</g>
</g>
<!-- Node1&#45;&gt;Node2 -->
<g id="edge1_Node000001_Node000002" class="edge">
<title>Node1&#45;&gt;Node2</title>
<g id="a_edge1_Node000001_Node000002"><a xlink:title=" ">
<path fill="none" stroke="#63b8ff" d="M134.2,-60.32C123.33,-51.13 111.07,-40.75 101.26,-32.45"/>
<polygon fill="#63b8ff" stroke="#63b8ff" points="131.86,-62.93 141.75,-66.71 136.38,-57.58 131.86,-62.93"/>
</a>
</g>
</g>
<!-- Node3 -->
<g id="Node000003" class="node">
<title>Node3</title>
<g id="a_Node000003"><a xlink:href="_rest_action_8h.html" target="_top" xlink:title=" ">
<polygon fill="white" stroke="#666666" points="296,-32 184,-32 184,0 296,0 296,-32"/>
<text xml:space="preserve" text-anchor="start" x="192" y="-18.5" font-family="Helvetica,sans-Serif" font-size="10.00">Source/GOAP/Public</text>
<text xml:space="preserve" text-anchor="middle" x="240" y="-6.5" font-family="Helvetica,sans-Serif" font-size="10.00">/Actions/RestAction.h</text>
</a>
</g>
</g>
<!-- Node1&#45;&gt;Node3 -->
<g id="edge2_Node000001_Node000003" class="edge">
<title>Node1&#45;&gt;Node3</title>
<g id="a_edge2_Node000001_Node000003"><a xlink:title=" ">
<path fill="none" stroke="#63b8ff" d="M188.14,-60.32C199.15,-51.13 211.57,-40.75 221.5,-32.45"/>
<polygon fill="#63b8ff" stroke="#63b8ff" points="185.91,-57.62 180.48,-66.72 190.4,-63 185.91,-57.62"/>
</a>
</g>
</g>
</g>
</svg>
