<?xml version="1.0" encoding="UTF-8" standalone="no"?>
<!DOCTYPE svg PUBLIC "-//W3C//DTD SVG 1.1//EN"
 "http://www.w3.org/Graphics/SVG/1.1/DTD/svg11.dtd">
<!-- Generated by graphviz version 14.0.2 (20251019.1705)
 -->
<!-- Title: Source/GOAP/Public/Goals/GOAPGoal.h Pages: 1 -->
<svg width="496pt" height="152pt"
 viewBox="0.00 0.00 496.00 152.00" xmlns="http://www.w3.org/2000/svg" xmlns:xlink="http://www.w3.org/1999/xlink">
<g id="graph0" class="graph" transform="scale(1 1) rotate(0) translate(4 148)">
<title>Source/GOAP/Public/Goals/GOAPGoal.h</title>
<!-- Node1 -->
<g id="Node000001" class="node">
<title>Node1</title>
<g id="a_Node000001"><a xlink:title=" ">
<polygon fill="#999999" stroke="#666666" points="242.94,-144 134.69,-144 134.69,-112 242.94,-112 242.94,-144"/>
<text xml:space="preserve" text-anchor="start" x="142.69" y="-130.5" font-family="Helvetica,sans-Serif" font-size="10.00">Source/GOAP/Public</text>
<text xml:space="preserve" text-anchor="middle" x="188.81" y="-118.5" font-family="Helvetica,sans-Serif" font-size="10.00">/Goals/GOAPGoal.h</text>
</a>
</g>
</g>
<!-- Node2 -->
<g id="Node000002" class="node">
<title>Node2</title>
<g id="a_Node000002"><a xlink:title=" ">
<polygon fill="#e0e0e0" stroke="#999999" points="128.31,-20 49.31,-20 49.31,0 128.31,0 128.31,-20"/>
<text xml:space="preserve" text-anchor="middle" x="88.81" y="-6.5" font-family="Helvetica,sans-Serif" font-size="10.00">CoreMinimal.h</text>
</a>
</g>
</g>
<!-- Node1&#45;&gt;Node2 -->
<g id="edge1_Node000001_Node000002" class="edge">
<title>Node1&#45;&gt;Node2</title>
<g id="a_edge1_Node000001_Node000002"><a xlink:title=" ">
<path fill="none" stroke="#63b8ff" d="M134.61,-119.31C86.2,-111.2 20.56,-96.71 4.81,-76 -11.69,-54.3 18.88,-35.99 47.66,-24.38"/>
<polygon fill="#63b8ff" stroke="#63b8ff" points="48.58,-27.78 56.68,-20.96 46.09,-21.24 48.58,-27.78"/>
</a>
</g>
</g>
<!-- Node3 -->
<g id="Node000003" class="node">
<title>Node3</title>
<g id="a_Node000003"><a xlink:title=" ">
<polygon fill="#e0e0e0" stroke="#999999" points="105.69,-76 13.94,-76 13.94,-56 105.69,-56 105.69,-76"/>
<text xml:space="preserve" text-anchor="middle" x="59.81" y="-62.5" font-family="Helvetica,sans-Serif" font-size="10.00">UObject/Object.h</text>
</a>
</g>
</g>
<!-- Node1&#45;&gt;Node3 -->
<g id="edge2_Node000001_Node000003" class="edge">
<title>Node1&#45;&gt;Node3</title>
<g id="a_edge2_Node000001_Node000003"><a xlink:title=" ">
<path fill="none" stroke="#63b8ff" d="M155.59,-111.55C135.43,-102.17 109.9,-90.3 90.27,-81.17"/>
<polygon fill="#63b8ff" stroke="#63b8ff" points="91.95,-78.09 81.41,-77.05 89,-84.44 91.95,-78.09"/>
</a>
</g>
</g>
<!-- Node4 -->
<g id="Node000004" class="node">
<title>Node4</title>
<g id="a_Node000004"><a xlink:title=" ">
<polygon fill="#e0e0e0" stroke="#999999" points="254.19,-76 123.44,-76 123.44,-56 254.19,-56 254.19,-76"/>
<text xml:space="preserve" text-anchor="middle" x="188.81" y="-62.5" font-family="Helvetica,sans-Serif" font-size="10.00">UObject/NoExportTypes.h</text>
</a>
</g>
</g>
<!-- Node1&#45;&gt;Node4 -->
<g id="edge3_Node000001_Node000004" class="edge">
<title>Node1&#45;&gt;Node4</title>
<g id="a_edge3_Node000001_Node000004"><a xlink:title=" ">
<path fill="none" stroke="#63b8ff" d="M188.81,-111.55C188.81,-104.34 188.81,-95.66 188.81,-87.88"/>
<polygon fill="#63b8ff" stroke="#63b8ff" points="192.31,-87.92 188.81,-77.92 185.31,-87.92 192.31,-87.92"/>
</a>
</g>
</g>
<!-- Node5 -->
<g id="Node000005" class="node">
<title>Node5</title>
<g id="a_Node000005"><a xlink:href="_g_o_a_p_types_8h.html" target="_top" xlink:title=" ">
<polygon fill="white" stroke="#666666" points="351.31,-76 272.31,-76 272.31,-56 351.31,-56 351.31,-76"/>
<text xml:space="preserve" text-anchor="middle" x="311.81" y="-62.5" font-family="Helvetica,sans-Serif" font-size="10.00">GOAPTypes.h</text>
</a>
</g>
</g>
<!-- Node1&#45;&gt;Node5 -->
<g id="edge4_Node000001_Node000005" class="edge">
<title>Node1&#45;&gt;Node5</title>
<g id="a_edge4_Node000001_Node000005"><a xlink:title=" ">
<path fill="none" stroke="#63b8ff" d="M220.49,-111.55C239.53,-102.26 263.6,-90.52 282.25,-81.42"/>
<polygon fill="#63b8ff" stroke="#63b8ff" points="283.71,-84.6 291.16,-77.07 280.64,-78.31 283.71,-84.6"/>
</a>
</g>
</g>
<!-- Node7 -->
<g id="Node000007" class="node">
<title>Node7</title>
<g id="a_Node000007"><a xlink:title=" ">
<polygon fill="#e0e0e0" stroke="#999999" points="488.19,-76 369.44,-76 369.44,-56 488.19,-56 488.19,-76"/>
<text xml:space="preserve" text-anchor="middle" x="428.81" y="-62.5" font-family="Helvetica,sans-Serif" font-size="10.00">GOAPGoal.generated.h</text>
</a>
</g>
</g>
<!-- Node1&#45;&gt;Node7 -->
<g id="edge7_Node000001_Node000007" class="edge">
<title>Node1&#45;&gt;Node7</title>
<g id="a_edge7_Node000001_Node000007"><a xlink:title=" ">
<path fill="none" stroke="#63b8ff" d="M243.27,-113.39C284.39,-103.1 340.33,-89.12 380.01,-79.2"/>
<polygon fill="#63b8ff" stroke="#63b8ff" points="380.67,-82.64 389.53,-76.82 378.98,-75.85 380.67,-82.64"/>
</a>
</g>
</g>
<!-- Node5&#45;&gt;Node2 -->
<g id="edge5_Node000005_Node000002" class="edge">
<title>Node5&#45;&gt;Node2</title>
<g id="a_edge5_Node000005_Node000002"><a xlink:title=" ">
<path fill="none" stroke="#63b8ff" d="M272.71,-55.53C235.49,-46.52 179.3,-32.91 138.83,-23.11"/>
<polygon fill="#63b8ff" stroke="#63b8ff" points="139.88,-19.77 129.34,-20.81 138.23,-26.57 139.88,-19.77"/>
</a>
</g>
</g>
<!-- Node6 -->
<g id="Node000006" class="node">
<title>Node6</title>
<g id="a_Node000006"><a xlink:title=" ">
<polygon fill="#e0e0e0" stroke="#999999" points="374.19,-20 249.44,-20 249.44,0 374.19,0 374.19,-20"/>
<text xml:space="preserve" text-anchor="middle" x="311.81" y="-6.5" font-family="Helvetica,sans-Serif" font-size="10.00">GOAPTypes.generated.h</text>
</a>
</g>
</g>
<!-- Node5&#45;&gt;Node6 -->
<g id="edge6_Node000005_Node000006" class="edge">
<title>Node5&#45;&gt;Node6</title>
<g id="a_edge6_Node000005_Node000006"><a xlink:title=" ">
<path fill="none" stroke="#63b8ff" d="M311.81,-55.59C311.81,-49.01 311.81,-39.96 311.81,-31.73"/>
<polygon fill="#63b8ff" stroke="#63b8ff" points="315.31,-31.81 311.81,-21.81 308.31,-31.81 315.31,-31.81"/>
</a>
</g>
</g>
</g>
</svg>
