<?xml version="1.0" encoding="UTF-8" standalone="no"?>
<!DOCTYPE svg PUBLIC "-//W3C//DTD SVG 1.1//EN"
 "http://www.w3.org/Graphics/SVG/1.1/DTD/svg11.dtd">
<!-- Generated by graphviz version 14.0.2 (20251019.1705)
 -->
<!-- Title: Source/GOAP/Public/Actions/PutAwayWeaponAction.h Pages: 1 -->
<svg width="409pt" height="152pt"
 viewBox="0.00 0.00 409.00 152.00" xmlns="http://www.w3.org/2000/svg" xmlns:xlink="http://www.w3.org/1999/xlink">
<g id="graph0" class="graph" transform="scale(1 1) rotate(0) translate(4 148)">
<title>Source/GOAP/Public/Actions/PutAwayWeaponAction.h</title>
<!-- Node1 -->
<g id="Node000001" class="node">
<title>Node1</title>
<g id="a_Node000001"><a xlink:title=" ">
<polygon fill="#999999" stroke="#666666" points="235.5,-144 69.5,-144 69.5,-112 235.5,-112 235.5,-144"/>
<text xml:space="preserve" text-anchor="start" x="77.5" y="-130.5" font-family="Helvetica,sans-Serif" font-size="10.00">Source/GOAP/Public</text>
<text xml:space="preserve" text-anchor="middle" x="152.5" y="-118.5" font-family="Helvetica,sans-Serif" font-size="10.00">/Actions/PutAwayWeaponAction.h</text>
</a>
</g>
</g>
<!-- Node2 -->
<g id="Node000002" class="node">
<title>Node2</title>
<g id="a_Node000002"><a xlink:title=" ">
<polygon fill="#e0e0e0" stroke="#999999" points="79,-20 0,-20 0,0 79,0 79,-20"/>
<text xml:space="preserve" text-anchor="middle" x="39.5" y="-6.5" font-family="Helvetica,sans-Serif" font-size="10.00">CoreMinimal.h</text>
</a>
</g>
</g>
<!-- Node1&#45;&gt;Node2 -->
<g id="edge1_Node000001_Node000002" class="edge">
<title>Node1&#45;&gt;Node2</title>
<g id="a_edge1_Node000001_Node000002"><a xlink:title=" ">
<path fill="none" stroke="#63b8ff" d="M128.75,-111.59C115.25,-102.21 98.5,-89.46 85.5,-76 72.01,-62.03 59.48,-43.83 50.91,-30.24"/>
<polygon fill="#63b8ff" stroke="#63b8ff" points="53.94,-28.49 45.74,-21.79 47.97,-32.14 53.94,-28.49"/>
</a>
</g>
</g>
<!-- Node3 -->
<g id="Node000003" class="node">
<title>Node3</title>
<g id="a_Node000003"><a xlink:href="_g_o_a_p_action_8h.html" target="_top" xlink:title=" ">
<polygon fill="white" stroke="#666666" points="210.38,-76 94.62,-76 94.62,-56 210.38,-56 210.38,-76"/>
<text xml:space="preserve" text-anchor="middle" x="152.5" y="-62.5" font-family="Helvetica,sans-Serif" font-size="10.00">Actions/GOAPAction.h</text>
</a>
</g>
</g>
<!-- Node1&#45;&gt;Node3 -->
<g id="edge2_Node000001_Node000003" class="edge">
<title>Node1&#45;&gt;Node3</title>
<g id="a_edge2_Node000001_Node000003"><a xlink:title=" ">
<path fill="none" stroke="#63b8ff" d="M152.5,-111.55C152.5,-104.34 152.5,-95.66 152.5,-87.88"/>
<polygon fill="#63b8ff" stroke="#63b8ff" points="156,-87.92 152.5,-77.92 149,-87.92 156,-87.92"/>
</a>
</g>
</g>
<!-- Node6 -->
<g id="Node000006" class="node">
<title>Node6</title>
<g id="a_Node000006"><a xlink:title=" ">
<polygon fill="#e0e0e0" stroke="#999999" points="400.88,-76 228.12,-76 228.12,-56 400.88,-56 400.88,-76"/>
<text xml:space="preserve" text-anchor="middle" x="314.5" y="-62.5" font-family="Helvetica,sans-Serif" font-size="10.00">PutAwayWeaponAction.generated.h</text>
</a>
</g>
</g>
<!-- Node1&#45;&gt;Node6 -->
<g id="edge6_Node000001_Node000006" class="edge">
<title>Node1&#45;&gt;Node6</title>
<g id="a_edge6_Node000001_Node000006"><a xlink:title=" ">
<path fill="none" stroke="#63b8ff" d="M194.22,-111.55C220.35,-101.87 253.68,-89.53 278.63,-80.29"/>
<polygon fill="#63b8ff" stroke="#63b8ff" points="279.52,-83.69 287.68,-76.93 277.09,-77.12 279.52,-83.69"/>
</a>
</g>
</g>
<!-- Node3&#45;&gt;Node2 -->
<g id="edge3_Node000003_Node000002" class="edge">
<title>Node3&#45;&gt;Node2</title>
<g id="a_edge3_Node000003_Node000002"><a xlink:title=" ">
<path fill="none" stroke="#63b8ff" d="M132.82,-55.59C115.34,-47.24 89.55,-34.92 69.5,-25.34"/>
<polygon fill="#63b8ff" stroke="#63b8ff" points="71.23,-22.29 60.7,-21.13 68.22,-28.6 71.23,-22.29"/>
</a>
</g>
</g>
<!-- Node4 -->
<g id="Node000004" class="node">
<title>Node4</title>
<g id="a_Node000004"><a xlink:title=" ">
<polygon fill="#e0e0e0" stroke="#999999" points="227.88,-20 97.12,-20 97.12,0 227.88,0 227.88,-20"/>
<text xml:space="preserve" text-anchor="middle" x="162.5" y="-6.5" font-family="Helvetica,sans-Serif" font-size="10.00">UObject/NoExportTypes.h</text>
</a>
</g>
</g>
<!-- Node3&#45;&gt;Node4 -->
<g id="edge4_Node000003_Node000004" class="edge">
<title>Node3&#45;&gt;Node4</title>
<g id="a_edge4_Node000003_Node000004"><a xlink:title=" ">
<path fill="none" stroke="#63b8ff" d="M154.24,-55.59C155.48,-48.93 157.18,-39.75 158.71,-31.44"/>
<polygon fill="#63b8ff" stroke="#63b8ff" points="162.12,-32.26 160.5,-21.79 155.24,-30.98 162.12,-32.26"/>
</a>
</g>
</g>
<!-- Node5 -->
<g id="Node000005" class="node">
<title>Node5</title>
<g id="a_Node000005"><a xlink:title=" ">
<polygon fill="#e0e0e0" stroke="#999999" points="371.25,-20 245.75,-20 245.75,0 371.25,0 371.25,-20"/>
<text xml:space="preserve" text-anchor="middle" x="308.5" y="-6.5" font-family="Helvetica,sans-Serif" font-size="10.00">GOAPAction.generated.h</text>
</a>
</g>
</g>
<!-- Node3&#45;&gt;Node5 -->
<g id="edge5_Node000003_Node000005" class="edge">
<title>Node3&#45;&gt;Node5</title>
<g id="a_edge5_Node000003_Node000005"><a xlink:title=" ">
<path fill="none" stroke="#63b8ff" d="M179.67,-55.59C204.8,-46.9 242.38,-33.89 270.48,-24.16"/>
<polygon fill="#63b8ff" stroke="#63b8ff" points="271.38,-27.55 279.68,-20.97 269.09,-20.94 271.38,-27.55"/>
</a>
</g>
</g>
</g>
</svg>
