<?xml version="1.0" encoding="UTF-8" standalone="no"?>
<!DOCTYPE svg PUBLIC "-//W3C//DTD SVG 1.1//EN"
 "http://www.w3.org/Graphics/SVG/1.1/DTD/svg11.dtd">
<!-- Generated by graphviz version 14.0.2 (20251019.1705)
 -->
<!-- Title: AGOAPAIController Pages: 1 -->
<svg width="118pt" height="164pt"
 viewBox="0.00 0.00 118.00 164.00" xmlns="http://www.w3.org/2000/svg" xmlns:xlink="http://www.w3.org/1999/xlink">
<g id="graph0" class="graph" transform="scale(1 1) rotate(0) translate(4 160)">
<title>AGOAPAIController</title>
<!-- Node1 -->
<g id="Node000001" class="node">
<title>Node1</title>
<g id="a_Node000001"><a xlink:title="AI Controller class for GOAP agents.">
<polygon fill="#999999" stroke="none" points="110.25,-68 0,-68 0,0 110.25,0 110.25,-68"/>
<text xml:space="preserve" text-anchor="start" x="12" y="-54.5" font-family="Helvetica,sans-Serif" font-size="10.00">AGOAPAIController</text>
<text xml:space="preserve" text-anchor="start" x="53.62" y="-38.5" font-family="Helvetica,sans-Serif" font-size="10.00"> </text>
<text xml:space="preserve" text-anchor="start" x="4" y="-22.5" font-family="Helvetica,sans-Serif" font-size="10.00">+</text>
<text xml:space="preserve" text-anchor="start" x="14" y="-22.5" font-family="Helvetica,sans-Serif" font-size="10.00">AGOAPAIController()</text>
<text xml:space="preserve" text-anchor="start" x="4.38" y="-6.5" font-family="Helvetica,sans-Serif" font-size="10.00">#</text>
<text xml:space="preserve" text-anchor="start" x="14" y="-6.5" font-family="Helvetica,sans-Serif" font-size="10.00">OnPossess()</text>
<polygon fill="#666666" stroke="#666666" points="0,-50 0,-50 110.25,-50 110.25,-50 0,-50"/>
<polygon fill="#666666" stroke="#666666" points="0,-34 0,-34 110.25,-34 110.25,-34 0,-34"/>
<polygon fill="none" stroke="#666666" points="0,0 0,-68 110.25,-68 110.25,0 0,0"/>
</a>
</g>
</g>
<!-- Node2 -->
<g id="Node000002" class="node">
<title>Node2</title>
<g id="a_Node000002"><a xlink:title=" ">
<polygon fill="white" stroke="none" points="88.38,-156 21.88,-156 21.88,-104 88.38,-104 88.38,-156"/>
<text xml:space="preserve" text-anchor="start" x="25.88" y="-142.5" font-family="Helvetica,sans-Serif" font-size="10.00">AAIController</text>
<text xml:space="preserve" text-anchor="start" x="53.62" y="-126.5" font-family="Helvetica,sans-Serif" font-size="10.00"> </text>
<text xml:space="preserve" text-anchor="start" x="53.62" y="-110.5" font-family="Helvetica,sans-Serif" font-size="10.00"> </text>
<polygon fill="#666666" stroke="#666666" points="21.88,-138 21.88,-138 88.38,-138 88.38,-138 21.88,-138"/>
<polygon fill="#666666" stroke="#666666" points="21.88,-122 21.88,-122 88.38,-122 88.38,-122 21.88,-122"/>
<polygon fill="none" stroke="#666666" points="21.88,-104 21.88,-156 88.38,-156 88.38,-104 21.88,-104"/>
</a>
</g>
</g>
<!-- Node2&#45;&gt;Node1 -->
<g id="edge1_Node000001_Node000002" class="edge">
<title>Node2&#45;&gt;Node1</title>
<g id="a_edge1_Node000001_Node000002"><a xlink:title=" ">
<path fill="none" stroke="#63b8ff" d="M55.12,-92.97C55.12,-84.65 55.12,-75.84 55.12,-67.67"/>
<polygon fill="none" stroke="#63b8ff" points="51.63,-92.79 55.13,-102.79 58.63,-92.79 51.63,-92.79"/>
</a>
</g>
</g>
</g>
</svg>
