<?xml version="1.0" encoding="UTF-8" standalone="no"?>
<!DOCTYPE svg PUBLIC "-//W3C//DTD SVG 1.1//EN"
 "http://www.w3.org/Graphics/SVG/1.1/DTD/svg11.dtd">
<!-- Generated by graphviz version 14.0.2 (20251019.1705)
 -->
<!-- Title: UGOAPPutAwayWeaponAction Pages: 1 -->
<svg width="171pt" height="380pt"
 viewBox="0.00 0.00 171.00 380.00" xmlns="http://www.w3.org/2000/svg" xmlns:xlink="http://www.w3.org/1999/xlink">

<svg id="main" version="1.1" xmlns="http://www.w3.org/2000/svg" xmlns:xlink="http://www.w3.org/1999/xlink" xml:space="preserve">

<style type="text/css"><![CDATA[
.node, .edge {opacity: 0.7;}
.node.selected, .edge.selected {opacity: 1;}
.edge:hover path { stroke: red; }
.edge:hover polygon { stroke: red; fill: red; }
]]></style>
<script type="application/ecmascript" xlink:href="svg.min.js"/>
<svg id="graph" class="graph">
<g id="graph0" class="graph" transform="scale(1 1) rotate(0) translate(4 376)">
<title>UGOAPPutAwayWeaponAction</title>
<!-- Node1 -->
<g id="Node000001" class="node">
<title>Node1</title>
<g id="a_Node000001"><a xlink:title=" ">
<polygon fill="#999999" stroke="none" points="162.75,-68 0,-68 0,0 162.75,0 162.75,-68"/>
<text xml:space="preserve" text-anchor="start" x="12" y="-54.5" font-family="Helvetica,sans-Serif" font-size="10.00">UGOAPPutAwayWeaponAction</text>
<text xml:space="preserve" text-anchor="start" x="79.88" y="-38.5" font-family="Helvetica,sans-Serif" font-size="10.00"> </text>
<text xml:space="preserve" text-anchor="start" x="4" y="-22.5" font-family="Helvetica,sans-Serif" font-size="10.00">+</text>
<text xml:space="preserve" text-anchor="start" x="14" y="-22.5" font-family="Helvetica,sans-Serif" font-size="10.00">UGOAPPutAwayWeaponAction()</text>
<text xml:space="preserve" text-anchor="start" x="4" y="-6.5" font-family="Helvetica,sans-Serif" font-size="10.00">+</text>
<text xml:space="preserve" text-anchor="start" x="14" y="-6.5" font-family="Helvetica,sans-Serif" font-size="10.00">Execute_Implementation()</text>
<polygon fill="#666666" stroke="#666666" points="0,-50 0,-50 162.75,-50 162.75,-50 0,-50"/>
<polygon fill="#666666" stroke="#666666" points="0,-34 0,-34 162.75,-34 162.75,-34 0,-34"/>
<polygon fill="none" stroke="#666666" points="0,0 0,-68 162.75,-68 162.75,0 0,0"/>
</a>
</g>
</g>
<!-- Node2 -->
<g id="Node000002" class="node">
<title>Node2</title>
<g id="a_Node000002"><a xlink:href="class_u_g_o_a_p_action.html" target="_top" xlink:title="Base class for all GOAP actions.">
<polygon fill="white" stroke="none" points="124.88,-284 37.88,-284 37.88,-104 124.88,-104 124.88,-284"/>
<text xml:space="preserve" text-anchor="start" x="49.88" y="-270.5" font-family="Helvetica,sans-Serif" font-size="10.00">UGOAPAction</text>
<text xml:space="preserve" text-anchor="start" x="41.88" y="-254.5" font-family="Helvetica,sans-Serif" font-size="10.00">+</text>
<text xml:space="preserve" text-anchor="start" x="51.88" y="-254.5" font-family="Helvetica,sans-Serif" font-size="10.00">Preconditions</text>
<text xml:space="preserve" text-anchor="start" x="41.88" y="-238.5" font-family="Helvetica,sans-Serif" font-size="10.00">+</text>
<text xml:space="preserve" text-anchor="start" x="51.88" y="-238.5" font-family="Helvetica,sans-Serif" font-size="10.00">Effects</text>
<text xml:space="preserve" text-anchor="start" x="41.88" y="-222.5" font-family="Helvetica,sans-Serif" font-size="10.00">+</text>
<text xml:space="preserve" text-anchor="start" x="51.88" y="-222.5" font-family="Helvetica,sans-Serif" font-size="10.00">Cost</text>
<text xml:space="preserve" text-anchor="start" x="41.88" y="-206.5" font-family="Helvetica,sans-Serif" font-size="10.00">+</text>
<text xml:space="preserve" text-anchor="start" x="51.88" y="-206.5" font-family="Helvetica,sans-Serif" font-size="10.00">bIsRunning</text>
<text xml:space="preserve" text-anchor="start" x="41.88" y="-190.5" font-family="Helvetica,sans-Serif" font-size="10.00">+</text>
<text xml:space="preserve" text-anchor="start" x="51.88" y="-190.5" font-family="Helvetica,sans-Serif" font-size="10.00">UGOAPAction()</text>
<text xml:space="preserve" text-anchor="start" x="41.88" y="-174.5" font-family="Helvetica,sans-Serif" font-size="10.00">+</text>
<text xml:space="preserve" text-anchor="start" x="51.88" y="-174.5" font-family="Helvetica,sans-Serif" font-size="10.00">CanExecute()</text>
<text xml:space="preserve" text-anchor="start" x="41.88" y="-158.5" font-family="Helvetica,sans-Serif" font-size="10.00">+</text>
<text xml:space="preserve" text-anchor="start" x="51.88" y="-158.5" font-family="Helvetica,sans-Serif" font-size="10.00">Execute()</text>
<text xml:space="preserve" text-anchor="start" x="41.88" y="-142.5" font-family="Helvetica,sans-Serif" font-size="10.00">+</text>
<text xml:space="preserve" text-anchor="start" x="51.88" y="-142.5" font-family="Helvetica,sans-Serif" font-size="10.00">TickAction()</text>
<text xml:space="preserve" text-anchor="start" x="41.88" y="-126.5" font-family="Helvetica,sans-Serif" font-size="10.00">+</text>
<text xml:space="preserve" text-anchor="start" x="51.88" y="-126.5" font-family="Helvetica,sans-Serif" font-size="10.00">Finish()</text>
<text xml:space="preserve" text-anchor="start" x="41.88" y="-110.5" font-family="Helvetica,sans-Serif" font-size="10.00">+</text>
<text xml:space="preserve" text-anchor="start" x="51.88" y="-110.5" font-family="Helvetica,sans-Serif" font-size="10.00">OnInterrupt()</text>
<polygon fill="#666666" stroke="#666666" points="37.88,-266 37.88,-266 124.88,-266 124.88,-266 37.88,-266"/>
<polygon fill="#666666" stroke="#666666" points="37.88,-202 37.88,-202 49.88,-202 49.88,-202 37.88,-202"/>
<polygon fill="#666666" stroke="#666666" points="49.88,-202 49.88,-202 124.88,-202 124.88,-202 49.88,-202"/>
<polygon fill="none" stroke="#666666" points="37.88,-104 37.88,-284 124.88,-284 124.88,-104 37.88,-104"/>
</a>
</g>
</g>
<!-- Node2&#45;&gt;Node1 -->
<g id="edge1_Node000001_Node000002" class="edge">
<title>Node2&#45;&gt;Node1</title>
<g id="a_edge1_Node000001_Node000002"><a xlink:title=" ">
<path fill="none" stroke="#63b8ff" d="M81.38,-92.9C81.38,-84.04 81.38,-75.56 81.38,-67.95"/>
<polygon fill="none" stroke="#63b8ff" points="77.88,-92.79 81.38,-102.79 84.88,-92.79 77.88,-92.79"/>
</a>
</g>
</g>
<!-- Node3 -->
<g id="Node000003" class="node">
<title>Node3</title>
<g id="a_Node000003"><a xlink:title=" ">
<polygon fill="white" stroke="none" points="103.38,-372 59.38,-372 59.38,-320 103.38,-320 103.38,-372"/>
<text xml:space="preserve" text-anchor="start" x="63.38" y="-358.5" font-family="Helvetica,sans-Serif" font-size="10.00">UObject</text>
<text xml:space="preserve" text-anchor="start" x="79.88" y="-342.5" font-family="Helvetica,sans-Serif" font-size="10.00"> </text>
<text xml:space="preserve" text-anchor="start" x="79.88" y="-326.5" font-family="Helvetica,sans-Serif" font-size="10.00"> </text>
<polygon fill="#666666" stroke="#666666" points="59.38,-354 59.38,-354 103.38,-354 103.38,-354 59.38,-354"/>
<polygon fill="#666666" stroke="#666666" points="59.38,-338 59.38,-338 103.38,-338 103.38,-338 59.38,-338"/>
<polygon fill="none" stroke="#666666" points="59.38,-320 59.38,-372 103.38,-372 103.38,-320 59.38,-320"/>
</a>
</g>
</g>
<!-- Node3&#45;&gt;Node2 -->
<g id="edge2_Node000002_Node000003" class="edge">
<title>Node3&#45;&gt;Node2</title>
<g id="a_edge2_Node000002_Node000003"><a xlink:title=" ">
<path fill="none" stroke="#63b8ff" d="M81.38,-308.83C81.38,-301.13 81.38,-292.68 81.38,-283.98"/>
<polygon fill="none" stroke="#63b8ff" points="77.88,-308.72 81.38,-318.72 84.88,-308.72 77.88,-308.72"/>
</a>
</g>
</g>
</g>
</svg>
</svg>

<style type='text/css'>
<![CDATA[
[data-mouse-over-selected='false'] { opacity: 0.7; }
[data-mouse-over-selected='true']  { opacity: 1.0; }
]]>
</style>
<script type="application/ecmascript"><![CDATA[
document.addEventListener('DOMContentLoaded', (event) => {
  highlightEdges();
  highlightAdjacentNodes();
});
]]></script>
</svg>
