<?xml version="1.0" encoding="UTF-8" standalone="no"?>
<!DOCTYPE svg PUBLIC "-//W3C//DTD SVG 1.1//EN"
 "http://www.w3.org/Graphics/SVG/1.1/DTD/svg11.dtd">
<!-- Generated by graphviz version 14.0.2 (20251019.1705)
 -->
<!-- Title: UGOAPGoal Pages: 1 -->
<svg width="166pt" height="214pt"
 viewBox="0.00 0.00 166.00 214.00" xmlns="http://www.w3.org/2000/svg" xmlns:xlink="http://www.w3.org/1999/xlink">

<svg id="main" version="1.1" xmlns="http://www.w3.org/2000/svg" xmlns:xlink="http://www.w3.org/1999/xlink" xml:space="preserve">

<style type="text/css"><![CDATA[
.node, .edge {opacity: 0.7;}
.node.selected, .edge.selected {opacity: 1;}
.edge:hover path { stroke: red; }
.edge:hover polygon { stroke: red; fill: red; }
]]></style>
<script type="application/ecmascript" xlink:href="svg.min.js"/>
<svg id="graph" class="graph">
<g id="graph0" class="graph" transform="scale(1 1) rotate(0) translate(4 210)">
<title>UGOAPGoal</title>
<!-- Node1 -->
<g id="Node000001" class="node">
<title>Node1</title>
<g id="a_Node000001"><a xlink:title="Represents a GOAP Goal: a desired world state the agent aims to achieve.">
<polygon fill="#999999" stroke="none" points="107.12,-84 20.88,-84 20.88,0 107.12,0 107.12,-84"/>
<text xml:space="preserve" text-anchor="start" x="35.88" y="-70.5" font-family="Helvetica,sans-Serif" font-size="10.00">UGOAPGoal</text>
<text xml:space="preserve" text-anchor="start" x="24.88" y="-54.5" font-family="Helvetica,sans-Serif" font-size="10.00">+</text>
<text xml:space="preserve" text-anchor="start" x="34.88" y="-54.5" font-family="Helvetica,sans-Serif" font-size="10.00">Priority</text>
<text xml:space="preserve" text-anchor="start" x="24.88" y="-38.5" font-family="Helvetica,sans-Serif" font-size="10.00">+</text>
<text xml:space="preserve" text-anchor="start" x="34.88" y="-38.5" font-family="Helvetica,sans-Serif" font-size="10.00">UGOAPGoal()</text>
<text xml:space="preserve" text-anchor="start" x="24.88" y="-22.5" font-family="Helvetica,sans-Serif" font-size="10.00">+</text>
<text xml:space="preserve" text-anchor="start" x="34.88" y="-22.5" font-family="Helvetica,sans-Serif" font-size="10.00">GetGoalName()</text>
<text xml:space="preserve" text-anchor="start" x="24.88" y="-6.5" font-family="Helvetica,sans-Serif" font-size="10.00">+</text>
<text xml:space="preserve" text-anchor="start" x="34.88" y="-6.5" font-family="Helvetica,sans-Serif" font-size="10.00">IsRelevant()</text>
<polygon fill="#666666" stroke="#666666" points="20.88,-66 20.88,-66 107.12,-66 107.12,-66 20.88,-66"/>
<polygon fill="#666666" stroke="#666666" points="20.88,-50 20.88,-50 32.88,-50 32.88,-50 20.88,-50"/>
<polygon fill="#666666" stroke="#666666" points="32.88,-50 32.88,-50 107.12,-50 107.12,-50 32.88,-50"/>
<polygon fill="none" stroke="#666666" points="20.88,0 20.88,-84 107.12,-84 107.12,0 20.88,0"/>
</a>
</g>
</g>
<!-- Node2 -->
<g id="Node000002" class="node">
<title>Node2</title>
<g id="a_Node000002"><a xlink:title=" ">
<polygon fill="white" stroke="none" points="44,-198 0,-198 0,-146 44,-146 44,-198"/>
<text xml:space="preserve" text-anchor="start" x="4" y="-184.5" font-family="Helvetica,sans-Serif" font-size="10.00">UObject</text>
<text xml:space="preserve" text-anchor="start" x="20.5" y="-168.5" font-family="Helvetica,sans-Serif" font-size="10.00"> </text>
<text xml:space="preserve" text-anchor="start" x="20.5" y="-152.5" font-family="Helvetica,sans-Serif" font-size="10.00"> </text>
<polygon fill="#666666" stroke="#666666" points="0,-180 0,-180 44,-180 44,-180 0,-180"/>
<polygon fill="#666666" stroke="#666666" points="0,-164 0,-164 44,-164 44,-164 0,-164"/>
<polygon fill="none" stroke="#666666" points="0,-146 0,-198 44,-198 44,-146 0,-146"/>
</a>
</g>
</g>
<!-- Node2&#45;&gt;Node1 -->
<g id="edge1_Node000001_Node000002" class="edge">
<title>Node2&#45;&gt;Node1</title>
<g id="a_edge1_Node000001_Node000002"><a xlink:title=" ">
<path fill="none" stroke="#63b8ff" d="M33.66,-135.46C38.92,-119.43 45.17,-100.4 50.62,-83.79"/>
<polygon fill="none" stroke="#63b8ff" points="30.46,-133.99 30.67,-144.58 37.11,-136.17 30.46,-133.99"/>
</a>
</g>
</g>
<!-- Node3 -->
<g id="Node000003" class="node">
<title>Node3</title>
<g id="a_Node000003"><a xlink:href="struct_f_g_o_a_p_world_state.html" target="_top" xlink:title="Represents a set of world state facts for the GOAP system.">
<polygon fill="white" stroke="none" points="152.25,-206 61.75,-206 61.75,-138 152.25,-138 152.25,-206"/>
<text xml:space="preserve" text-anchor="start" x="65.75" y="-192.5" font-family="Helvetica,sans-Serif" font-size="10.00">FGOAPWorldState</text>
<text xml:space="preserve" text-anchor="start" x="72.81" y="-176.5" font-family="Helvetica,sans-Serif" font-size="10.00">+</text>
<text xml:space="preserve" text-anchor="start" x="89.88" y="-176.5" font-family="Helvetica,sans-Serif" font-size="10.00">Bools</text>
<text xml:space="preserve" text-anchor="start" x="72.81" y="-160.5" font-family="Helvetica,sans-Serif" font-size="10.00">+</text>
<text xml:space="preserve" text-anchor="start" x="89.88" y="-160.5" font-family="Helvetica,sans-Serif" font-size="10.00">Satisfies()</text>
<text xml:space="preserve" text-anchor="start" x="72.81" y="-144.5" font-family="Helvetica,sans-Serif" font-size="10.00">+</text>
<text xml:space="preserve" text-anchor="start" x="89.88" y="-144.5" font-family="Helvetica,sans-Serif" font-size="10.00">Apply()</text>
<polygon fill="#666666" stroke="#666666" points="61.75,-188 61.75,-188 152.25,-188 152.25,-188 61.75,-188"/>
<polygon fill="#666666" stroke="#666666" points="61.75,-172 61.75,-172 87.88,-172 87.88,-172 61.75,-172"/>
<polygon fill="#666666" stroke="#666666" points="87.88,-172 87.88,-172 152.25,-172 152.25,-172 87.88,-172"/>
<polygon fill="none" stroke="#666666" points="61.75,-138 61.75,-206 152.25,-206 152.25,-138 61.75,-138"/>
</a>
</g>
</g>
<!-- Node3&#45;&gt;Node1 -->
<g id="edge2_Node000001_Node000003" class="edge">
<title>Node3&#45;&gt;Node1</title>
<g id="a_edge2_Node000001_Node000003"><a xlink:title=" ">
<path fill="none" stroke="#63b8ff" d="M95.93,-138.04C91.62,-125.2 86.57,-110.17 81.77,-95.9"/>
<polygon fill="none" stroke="#63b8ff" points="81.76,-95.86 76.06,-91.45 77.94,-84.49 83.64,-88.9 81.76,-95.86"/>
</a>
</g>
<text xml:space="preserve" text-anchor="start" x="92.35" y="-107.5" font-family="Helvetica,sans-Serif" font-size="10.00" fill="grey">+DesiredState</text>
</g>
</g>
</svg>
</svg>

<style type='text/css'>
<![CDATA[
[data-mouse-over-selected='false'] { opacity: 0.7; }
[data-mouse-over-selected='true']  { opacity: 1.0; }
]]>
</style>
<script type="application/ecmascript"><![CDATA[
document.addEventListener('DOMContentLoaded', (event) => {
  highlightEdges();
  highlightAdjacentNodes();
});
]]></script>
</svg>
