<?xml version="1.0" encoding="UTF-8" standalone="no"?>
<!DOCTYPE svg PUBLIC "-//W3C//DTD SVG 1.1//EN"
 "http://www.w3.org/Graphics/SVG/1.1/DTD/svg11.dtd">
<!-- Generated by graphviz version 14.0.2 (20251019.1705)
 -->
<!-- Title: UGOAPRestAction Pages: 1 -->
<svg width="151pt" height="396pt"
 viewBox="0.00 0.00 151.00 396.00" xmlns="http://www.w3.org/2000/svg" xmlns:xlink="http://www.w3.org/1999/xlink">

<svg id="main" version="1.1" xmlns="http://www.w3.org/2000/svg" xmlns:xlink="http://www.w3.org/1999/xlink" xml:space="preserve">

<style type="text/css"><![CDATA[
.node, .edge {opacity: 0.7;}
.node.selected, .edge.selected {opacity: 1;}
.edge:hover path { stroke: red; }
.edge:hover polygon { stroke: red; fill: red; }
]]></style>
<script type="application/ecmascript" xlink:href="svg.min.js"/>
<svg id="graph" class="graph">
<g id="graph0" class="graph" transform="scale(1 1) rotate(0) translate(4 392)">
<title>UGOAPRestAction</title>
<!-- Node1 -->
<g id="Node000001" class="node">
<title>Node1</title>
<g id="a_Node000001"><a xlink:title=" ">
<polygon fill="#999999" stroke="none" points="142.5,-84 0,-84 0,0 142.5,0 142.5,-84"/>
<text xml:space="preserve" text-anchor="start" x="28.88" y="-70.5" font-family="Helvetica,sans-Serif" font-size="10.00">UGOAPRestAction</text>
<text xml:space="preserve" text-anchor="start" x="69.75" y="-54.5" font-family="Helvetica,sans-Serif" font-size="10.00"> </text>
<text xml:space="preserve" text-anchor="start" x="4" y="-38.5" font-family="Helvetica,sans-Serif" font-size="10.00">+</text>
<text xml:space="preserve" text-anchor="start" x="14" y="-38.5" font-family="Helvetica,sans-Serif" font-size="10.00">UGOAPRestAction()</text>
<text xml:space="preserve" text-anchor="start" x="4" y="-22.5" font-family="Helvetica,sans-Serif" font-size="10.00">+</text>
<text xml:space="preserve" text-anchor="start" x="14" y="-22.5" font-family="Helvetica,sans-Serif" font-size="10.00">Execute_Implementation()</text>
<text xml:space="preserve" text-anchor="start" x="4" y="-6.5" font-family="Helvetica,sans-Serif" font-size="10.00">+</text>
<text xml:space="preserve" text-anchor="start" x="14" y="-6.5" font-family="Helvetica,sans-Serif" font-size="10.00">TickAction_Implementation()</text>
<polygon fill="#666666" stroke="#666666" points="0,-66 0,-66 142.5,-66 142.5,-66 0,-66"/>
<polygon fill="#666666" stroke="#666666" points="0,-50 0,-50 142.5,-50 142.5,-50 0,-50"/>
<polygon fill="none" stroke="#666666" points="0,0 0,-84 142.5,-84 142.5,0 0,0"/>
</a>
</g>
</g>
<!-- Node2 -->
<g id="Node000002" class="node">
<title>Node2</title>
<g id="a_Node000002"><a xlink:href="class_u_g_o_a_p_action.html" target="_top" xlink:title="Base class for all GOAP actions.">
<polygon fill="white" stroke="none" points="114.75,-300 27.75,-300 27.75,-120 114.75,-120 114.75,-300"/>
<text xml:space="preserve" text-anchor="start" x="39.75" y="-286.5" font-family="Helvetica,sans-Serif" font-size="10.00">UGOAPAction</text>
<text xml:space="preserve" text-anchor="start" x="31.75" y="-270.5" font-family="Helvetica,sans-Serif" font-size="10.00">+</text>
<text xml:space="preserve" text-anchor="start" x="41.75" y="-270.5" font-family="Helvetica,sans-Serif" font-size="10.00">Preconditions</text>
<text xml:space="preserve" text-anchor="start" x="31.75" y="-254.5" font-family="Helvetica,sans-Serif" font-size="10.00">+</text>
<text xml:space="preserve" text-anchor="start" x="41.75" y="-254.5" font-family="Helvetica,sans-Serif" font-size="10.00">Effects</text>
<text xml:space="preserve" text-anchor="start" x="31.75" y="-238.5" font-family="Helvetica,sans-Serif" font-size="10.00">+</text>
<text xml:space="preserve" text-anchor="start" x="41.75" y="-238.5" font-family="Helvetica,sans-Serif" font-size="10.00">Cost</text>
<text xml:space="preserve" text-anchor="start" x="31.75" y="-222.5" font-family="Helvetica,sans-Serif" font-size="10.00">+</text>
<text xml:space="preserve" text-anchor="start" x="41.75" y="-222.5" font-family="Helvetica,sans-Serif" font-size="10.00">bIsRunning</text>
<text xml:space="preserve" text-anchor="start" x="31.75" y="-206.5" font-family="Helvetica,sans-Serif" font-size="10.00">+</text>
<text xml:space="preserve" text-anchor="start" x="41.75" y="-206.5" font-family="Helvetica,sans-Serif" font-size="10.00">UGOAPAction()</text>
<text xml:space="preserve" text-anchor="start" x="31.75" y="-190.5" font-family="Helvetica,sans-Serif" font-size="10.00">+</text>
<text xml:space="preserve" text-anchor="start" x="41.75" y="-190.5" font-family="Helvetica,sans-Serif" font-size="10.00">CanExecute()</text>
<text xml:space="preserve" text-anchor="start" x="31.75" y="-174.5" font-family="Helvetica,sans-Serif" font-size="10.00">+</text>
<text xml:space="preserve" text-anchor="start" x="41.75" y="-174.5" font-family="Helvetica,sans-Serif" font-size="10.00">Execute()</text>
<text xml:space="preserve" text-anchor="start" x="31.75" y="-158.5" font-family="Helvetica,sans-Serif" font-size="10.00">+</text>
<text xml:space="preserve" text-anchor="start" x="41.75" y="-158.5" font-family="Helvetica,sans-Serif" font-size="10.00">TickAction()</text>
<text xml:space="preserve" text-anchor="start" x="31.75" y="-142.5" font-family="Helvetica,sans-Serif" font-size="10.00">+</text>
<text xml:space="preserve" text-anchor="start" x="41.75" y="-142.5" font-family="Helvetica,sans-Serif" font-size="10.00">Finish()</text>
<text xml:space="preserve" text-anchor="start" x="31.75" y="-126.5" font-family="Helvetica,sans-Serif" font-size="10.00">+</text>
<text xml:space="preserve" text-anchor="start" x="41.75" y="-126.5" font-family="Helvetica,sans-Serif" font-size="10.00">OnInterrupt()</text>
<polygon fill="#666666" stroke="#666666" points="27.75,-282 27.75,-282 114.75,-282 114.75,-282 27.75,-282"/>
<polygon fill="#666666" stroke="#666666" points="27.75,-218 27.75,-218 39.75,-218 39.75,-218 27.75,-218"/>
<polygon fill="#666666" stroke="#666666" points="39.75,-218 39.75,-218 114.75,-218 114.75,-218 39.75,-218"/>
<polygon fill="none" stroke="#666666" points="27.75,-120 27.75,-300 114.75,-300 114.75,-120 27.75,-120"/>
</a>
</g>
</g>
<!-- Node2&#45;&gt;Node1 -->
<g id="edge1_Node000001_Node000002" class="edge">
<title>Node2&#45;&gt;Node1</title>
<g id="a_edge1_Node000001_Node000002"><a xlink:title=" ">
<path fill="none" stroke="#63b8ff" d="M71.25,-108.7C71.25,-100.06 71.25,-91.68 71.25,-83.97"/>
<polygon fill="none" stroke="#63b8ff" points="67.75,-108.65 71.25,-118.65 74.75,-108.65 67.75,-108.65"/>
</a>
</g>
</g>
<!-- Node3 -->
<g id="Node000003" class="node">
<title>Node3</title>
<g id="a_Node000003"><a xlink:title=" ">
<polygon fill="white" stroke="none" points="93.25,-388 49.25,-388 49.25,-336 93.25,-336 93.25,-388"/>
<text xml:space="preserve" text-anchor="start" x="53.25" y="-374.5" font-family="Helvetica,sans-Serif" font-size="10.00">UObject</text>
<text xml:space="preserve" text-anchor="start" x="69.75" y="-358.5" font-family="Helvetica,sans-Serif" font-size="10.00"> </text>
<text xml:space="preserve" text-anchor="start" x="69.75" y="-342.5" font-family="Helvetica,sans-Serif" font-size="10.00"> </text>
<polygon fill="#666666" stroke="#666666" points="49.25,-370 49.25,-370 93.25,-370 93.25,-370 49.25,-370"/>
<polygon fill="#666666" stroke="#666666" points="49.25,-354 49.25,-354 93.25,-354 93.25,-354 49.25,-354"/>
<polygon fill="none" stroke="#666666" points="49.25,-336 49.25,-388 93.25,-388 93.25,-336 49.25,-336"/>
</a>
</g>
</g>
<!-- Node3&#45;&gt;Node2 -->
<g id="edge2_Node000002_Node000003" class="edge">
<title>Node3&#45;&gt;Node2</title>
<g id="a_edge2_Node000002_Node000003"><a xlink:title=" ">
<path fill="none" stroke="#63b8ff" d="M71.25,-324.83C71.25,-317.13 71.25,-308.68 71.25,-299.98"/>
<polygon fill="none" stroke="#63b8ff" points="67.75,-324.72 71.25,-334.72 74.75,-324.72 67.75,-324.72"/>
</a>
</g>
</g>
</g>
</svg>
</svg>

<style type='text/css'>
<![CDATA[
[data-mouse-over-selected='false'] { opacity: 0.7; }
[data-mouse-over-selected='true']  { opacity: 1.0; }
]]>
</style>
<script type="application/ecmascript"><![CDATA[
document.addEventListener('DOMContentLoaded', (event) => {
  highlightEdges();
  highlightAdjacentNodes();
});
]]></script>
</svg>
