<?xml version="1.0" encoding="UTF-8" standalone="no"?>
<!DOCTYPE svg PUBLIC "-//W3C//DTD SVG 1.1//EN"
 "http://www.w3.org/Graphics/SVG/1.1/DTD/svg11.dtd">
<!-- Generated by graphviz version 14.0.2 (20251019.1705)
 -->
<!-- Title: Graphical Class Hierarchy Pages: 1 -->
<svg width="181pt" height="104pt"
 viewBox="0.00 0.00 181.00 104.00" xmlns="http://www.w3.org/2000/svg" xmlns:xlink="http://www.w3.org/1999/xlink">
<g id="graph0" class="graph" transform="scale(1 1) rotate(0) translate(4 100)">
<title>Graphical Class Hierarchy</title>
<!-- Node0 -->
<g id="Node000000" class="node">
<title>Node0</title>
<g id="a_Node000000"><a xlink:title=" ">
<polygon fill="#e0e0e0" stroke="#999999" points="52,-58 0,-58 0,-38 52,-38 52,-58"/>
<text xml:space="preserve" text-anchor="middle" x="26" y="-44.5" font-family="Helvetica,sans-Serif" font-size="10.00">UObject</text>
</a>
</g>
</g>
<!-- Node1 -->
<g id="Node000001" class="node">
<title>Node1</title>
<g id="a_Node000001"><a xlink:href="class_u_g_o_a_p_action.html" target="_top" xlink:title="Base class for all GOAP actions.">
<polygon fill="white" stroke="#666666" points="170,-96 91,-96 91,-76 170,-76 170,-96"/>
<text xml:space="preserve" text-anchor="middle" x="130.5" y="-82.5" font-family="Helvetica,sans-Serif" font-size="10.00">UGOAPAction</text>
</a>
</g>
</g>
<!-- Node0&#45;&gt;Node1 -->
<g id="edge4_Node000000_Node000001" class="edge">
<title>Node0&#45;&gt;Node1</title>
<g id="a_edge4_Node000000_Node000001"><a xlink:title=" ">
<path fill="none" stroke="#63b8ff" d="M62.93,-61.32C75.47,-65.97 89.37,-71.12 101.21,-75.51"/>
<polygon fill="#63b8ff" stroke="#63b8ff" points="64.35,-58.11 53.76,-57.92 61.92,-64.68 64.35,-58.11"/>
</a>
</g>
</g>
<!-- Node2 -->
<g id="Node000002" class="node">
<title>Node2</title>
<g id="a_Node000002"><a xlink:href="class_u_g_o_a_p_goal.html" target="_top" xlink:title="Represents a GOAP Goal: a desired world state the agent aims to achieve.">
<polygon fill="white" stroke="#666666" points="166.62,-58 94.38,-58 94.38,-38 166.62,-38 166.62,-58"/>
<text xml:space="preserve" text-anchor="middle" x="130.5" y="-44.5" font-family="Helvetica,sans-Serif" font-size="10.00">UGOAPGoal</text>
</a>
</g>
</g>
<!-- Node0&#45;&gt;Node2 -->
<g id="edge5_Node000000_Node000002" class="edge">
<title>Node0&#45;&gt;Node2</title>
<g id="a_edge5_Node000000_Node000002"><a xlink:title=" ">
<path fill="none" stroke="#63b8ff" d="M63.83,-48C73.66,-48 84.26,-48 94.01,-48"/>
<polygon fill="#63b8ff" stroke="#63b8ff" points="63.85,-44.5 53.85,-48 63.85,-51.5 63.85,-44.5"/>
</a>
</g>
</g>
<!-- Node3 -->
<g id="Node000003" class="node">
<title>Node3</title>
<g id="a_Node000003"><a xlink:href="class_u_g_o_a_p_planner.html" target="_top" xlink:title="GOAP planner that computes an action sequence to achieve a desired goal.">
<polygon fill="white" stroke="#666666" points="173,-20 88,-20 88,0 173,0 173,-20"/>
<text xml:space="preserve" text-anchor="middle" x="130.5" y="-6.5" font-family="Helvetica,sans-Serif" font-size="10.00">UGOAPPlanner</text>
</a>
</g>
</g>
<!-- Node0&#45;&gt;Node3 -->
<g id="edge6_Node000000_Node000003" class="edge">
<title>Node0&#45;&gt;Node3</title>
<g id="a_edge6_Node000000_Node000003"><a xlink:title=" ">
<path fill="none" stroke="#63b8ff" d="M62.93,-34.68C75.47,-30.03 89.37,-24.88 101.21,-20.49"/>
<polygon fill="#63b8ff" stroke="#63b8ff" points="61.92,-31.32 53.76,-38.08 64.35,-37.89 61.92,-31.32"/>
</a>
</g>
</g>
</g>
</svg>
